<svg fill="currentColor" viewBox="0 0 18 20" xmlns="http://www.w3.org/2000/svg" data-testid="user-icon"><path d="M15.216 13.717 12 11.869c-.177-.101-.228-.262-.243-.348-.015-.086-.02-.254.112-.41l1.311-1.53699c.851-.994 1.32-2.263 1.32-3.574v-.5c0-1.515-.634-2.977-1.739-4.014C11.64.435011 10.173-.0879888 8.636.0110112 5.756.198011 3.501 2.68401 3.501 5.67101v.329c0 1.311.469 2.58 1.319 3.574L6.131 11.111c.133.155.127.323.112.41-.015.086-.066.247-.244.348l-3.213 1.847C1.067 14.692 0 16.526 0 18.501V20h1v-1.499c0-1.616.874-3.116 2.283-3.917l3.215-1.848c.388-.223.654-.604.73-1.045.076-.44-.046-.889-.337-1.229L5.579 8.92501c-.696-.814-1.08-1.853-1.08-2.925v-.329c0-2.461 1.845-4.509 4.2-4.662 1.262-.080999 2.46.347 3.377 1.206.918.861 1.424 2.028 1.424 3.285v.5c0 1.072-.383 2.111-1.08 2.925L11.109 10.462c-.29.341-.413.789-.337 1.229.077.441.343.822.731 1.045l3.218 1.849c1.406.799 2.28 2.299 2.28 3.916V20h1v-1.499c-.001-1.975-1.069-3.809-2.785-4.784Z"/></svg>